# MagicaVoxel @ Ephtracy

# group
o 

# material
mtllib space_Ship_2.mtl
usemtl palette

# normals
vn -1 0 0
vn 1 0 0
vn 0 0 1
vn 0 0 -1
vn 0 -1 0
vn 0 1 0

# texcoords
vt 0.845703 0.5
vt 0.919922 0.5
vt 0.958984 0.5
vt 0.982422 0.5
vt 0.994141 0.5

# verts
v -1.6 0.1 0
v -1.6 0.1 -0.3
v -1.6 0.2 0
v -1.6 0.2 -0.3
v -1.5 0 0
v -1.5 0 -0.2
v -1.5 0.1 0.4
v -1.5 0.1 0
v -1.5 0.1 -0.2
v -1.5 0.2 0.4
v -1.5 0.2 0
v -1.4 0 0.4
v -1.4 0 0
v -1.4 0 -0.2
v -1.4 0 -0.3
v -1.4 0.1 0.6
v -1.4 0.1 0.4
v -1.4 0.1 0
v -1.4 0.1 -0.2
v -1.4 0.1 -0.3
v -1.4 0.1 -0.4
v -1.4 0.2 0.6
v -1.4 0.2 0.4
v -1.4 0.2 -0.3
v -1.4 0.2 -0.4
v -1.3 0 0.6
v -1.3 0 0.4
v -1.3 0.1 0.7
v -1.3 0.1 0.6
v -1.3 0.1 0.4
v -1.3 0.2 0.7
v -1.3 0.2 0.6
v -1.3 0.2 0.2
v -1.3 0.2 -0.1
v -1.3 0.3 0.2
v -1.3 0.3 -0.1
v -1.2 0 0.7
v -1.2 0 0.6
v -1.2 0.1 0.8
v -1.2 0.1 0.7
v -1.2 0.1 0.6
v -1.2 0.2 0.8
v -1.2 0.2 0.7
v -1.2 0.2 0.3
v -1.2 0.2 0.2
v -1.2 0.3 0.3
v -1.2 0.3 0.2
v -1.2 0.3 0
v -1.2 0.4 0.2
v -1.2 0.4 0.1
v -1.2 0.4 0
v -1.2 0.5 0.1
v -1.2 0.5 0
v -1.1 0 0.8
v -1.1 0 0.7
v -1.1 0.1 1.5
v -1.1 0.1 1.4
v -1.1 0.1 0.8
v -1.1 0.1 0.7
v -1.1 0.2 1.5
v -1.1 0.2 1.4
v -1.1 0.2 0.8
v -1.1 0.2 0.3
v -1.1 0.2 -0.2
v -1.1 0.2 -0.3
v -1.1 0.3 0.8
v -1.1 0.3 0.3
v -1.1 0.3 -0.2
v -1.1 0.3 -0.3
v -1.1 0.4 0.2
v -1.1 0.4 0.1
v -1.1 0.5 0.2
v -1.1 0.5 0.1
v -1 0 -0.2
v -1 0 -0.3
v -1 0.1 -0.2
v -1 0.1 -0.3
v -1 0.2 -0.1
v -1 0.2 -0.2
v -1 0.3 -0.1
v -1 0.3 -0.2
v -0.8 0.1 0.8
v -0.8 0.1 0.7
v -0.8 0.2 0.8
v -0.8 0.2 0.7
v -0.7 0 0.8
v -0.7 0 0.6
v -0.7 0.1 1.5
v -0.7 0.1 1.4
v -0.7 0.1 0.8
v -0.7 0.1 0.6
v -0.7 0.1 -0.2
v -0.7 0.1 -0.3
v -0.7 0.2 1.5
v -0.7 0.2 1.4
v -0.7 0.2 0.8
v -0.7 0.2 0.3
v -0.7 0.2 -0.2
v -0.7 0.2 -0.3
v -0.7 0.3 0.8
v -0.7 0.3 0.3
v -0.6 0 -0.2
v -0.6 0 -0.3
v -0.6 0.1 -0.2
v -0.6 0.1 -0.3
v -0.6 0.1 -0.4
v -0.6 0.2 -0.3
v -0.6 0.2 -0.4
v -1.1 0 -0.2
v -1.1 0 -0.3
v -1.1 0.1 -0.2
v -1.1 0.1 -0.3
v -1.1 0.1 -0.4
v -1.1 0.2 -0.3
v -1.1 0.2 -0.4
v -1 0 0.8
v -1 0 0.6
v -1 0.1 1.5
v -1 0.1 1.4
v -1 0.1 0.8
v -1 0.1 0.6
v -1 0.1 -0.2
v -1 0.1 -0.3
v -1 0.2 1.5
v -1 0.2 1.4
v -1 0.2 0.8
v -1 0.2 0.3
v -1 0.2 -0.2
v -1 0.2 -0.3
v -1 0.3 0.8
v -1 0.3 0.3
v -0.9 0.1 0.8
v -0.9 0.1 0.7
v -0.9 0.2 0.8
v -0.9 0.2 0.7
v -0.7 0 -0.2
v -0.7 0 -0.3
v -0.7 0.1 -0.2
v -0.7 0.1 -0.3
v -0.7 0.2 -0.1
v -0.7 0.2 -0.2
v -0.7 0.3 -0.1
v -0.7 0.3 -0.2
v -0.6 0 0.8
v -0.6 0 0.7
v -0.6 0.1 1.5
v -0.6 0.1 1.4
v -0.6 0.1 0.8
v -0.6 0.1 0.7
v -0.6 0.2 1.5
v -0.6 0.2 1.4
v -0.6 0.2 0.8
v -0.6 0.2 0.3
v -0.6 0.2 -0.2
v -0.6 0.2 -0.3
v -0.6 0.3 0.8
v -0.6 0.3 0.3
v -0.6 0.3 -0.2
v -0.6 0.3 -0.3
v -0.6 0.4 0.2
v -0.6 0.4 0.1
v -0.6 0.5 0.2
v -0.6 0.5 0.1
v -0.5 0 0.7
v -0.5 0 0.6
v -0.5 0.1 0.8
v -0.5 0.1 0.7
v -0.5 0.1 0.6
v -0.5 0.2 0.8
v -0.5 0.2 0.7
v -0.5 0.2 0.3
v -0.5 0.2 0.2
v -0.5 0.3 0.3
v -0.5 0.3 0.2
v -0.5 0.3 0
v -0.5 0.4 0.2
v -0.5 0.4 0.1
v -0.5 0.4 0
v -0.5 0.5 0.1
v -0.5 0.5 0
v -0.4 0 0.6
v -0.4 0 0.4
v -0.4 0.1 0.7
v -0.4 0.1 0.6
v -0.4 0.1 0.4
v -0.4 0.2 0.7
v -0.4 0.2 0.6
v -0.4 0.2 0.2
v -0.4 0.2 -0.1
v -0.4 0.3 0.2
v -0.4 0.3 -0.1
v -0.3 0 0.4
v -0.3 0 0
v -0.3 0 -0.2
v -0.3 0 -0.3
v -0.3 0.1 0.6
v -0.3 0.1 0.4
v -0.3 0.1 0
v -0.3 0.1 -0.2
v -0.3 0.1 -0.3
v -0.3 0.1 -0.4
v -0.3 0.2 0.6
v -0.3 0.2 0.4
v -0.3 0.2 -0.3
v -0.3 0.2 -0.4
v -0.2 0 0
v -0.2 0 -0.2
v -0.2 0.1 0.4
v -0.2 0.1 0
v -0.2 0.1 -0.2
v -0.2 0.2 0.4
v -0.2 0.2 0
v -0.1 0.1 0
v -0.1 0.1 -0.3
v -0.1 0.2 0
v -0.1 0.2 -0.3
v -1.1 0.1 1.5
v -1.1 0.2 1.5
v -1 0.1 1.5
v -1 0.2 1.5
v -0.7 0.1 1.5
v -0.7 0.2 1.5
v -0.6 0.1 1.5
v -0.6 0.2 1.5
v -1.2 0.1 0.8
v -1.2 0.2 0.8
v -1.1 0 0.8
v -1.1 0.1 0.8
v -1.1 0.2 0.8
v -1.1 0.3 0.8
v -1 0 0.8
v -1 0.1 0.8
v -1 0.2 0.8
v -1 0.3 0.8
v -0.9 0.1 0.8
v -0.9 0.2 0.8
v -0.8 0.1 0.8
v -0.8 0.2 0.8
v -0.7 0 0.8
v -0.7 0.1 0.8
v -0.7 0.2 0.8
v -0.7 0.3 0.8
v -0.6 0 0.8
v -0.6 0.1 0.8
v -0.6 0.2 0.8
v -0.6 0.3 0.8
v -0.5 0.1 0.8
v -0.5 0.2 0.8
v -1.3 0.1 0.7
v -1.3 0.2 0.7
v -1.2 0 0.7
v -1.2 0.1 0.7
v -1.2 0.2 0.7
v -1.1 0 0.7
v -1.1 0.1 0.7
v -0.9 0.1 0.7
v -0.9 0.2 0.7
v -0.8 0.1 0.7
v -0.8 0.2 0.7
v -0.6 0 0.7
v -0.6 0.1 0.7
v -0.5 0 0.7
v -0.5 0.1 0.7
v -0.5 0.2 0.7
v -0.4 0.1 0.7
v -0.4 0.2 0.7
v -1.4 0.1 0.6
v -1.4 0.2 0.6
v -1.3 0 0.6
v -1.3 0.1 0.6
v -1.3 0.2 0.6
v -1.2 0 0.6
v -1.2 0.1 0.6
v -1 0 0.6
v -1 0.1 0.6
v -0.7 0 0.6
v -0.7 0.1 0.6
v -0.5 0 0.6
v -0.5 0.1 0.6
v -0.4 0 0.6
v -0.4 0.1 0.6
v -0.4 0.2 0.6
v -0.3 0.1 0.6
v -0.3 0.2 0.6
v -1.5 0.1 0.4
v -1.5 0.2 0.4
v -1.4 0 0.4
v -1.4 0.1 0.4
v -1.4 0.2 0.4
v -1.3 0 0.4
v -1.3 0.1 0.4
v -0.4 0 0.4
v -0.4 0.1 0.4
v -0.3 0 0.4
v -0.3 0.1 0.4
v -0.3 0.2 0.4
v -0.2 0.1 0.4
v -0.2 0.2 0.4
v -1.2 0.2 0.3
v -1.2 0.3 0.3
v -1.1 0.2 0.3
v -1.1 0.3 0.3
v -1 0.2 0.3
v -1 0.3 0.3
v -0.7 0.2 0.3
v -0.7 0.3 0.3
v -0.6 0.2 0.3
v -0.6 0.3 0.3
v -0.5 0.2 0.3
v -0.5 0.3 0.3
v -1.3 0.2 0.2
v -1.3 0.3 0.2
v -1.2 0.2 0.2
v -1.2 0.3 0.2
v -1.2 0.4 0.2
v -1.1 0.4 0.2
v -1.1 0.5 0.2
v -0.6 0.4 0.2
v -0.6 0.5 0.2
v -0.5 0.2 0.2
v -0.5 0.3 0.2
v -0.5 0.4 0.2
v -0.4 0.2 0.2
v -0.4 0.3 0.2
v -1.2 0.4 0.1
v -1.2 0.5 0.1
v -1.1 0.4 0.1
v -1.1 0.5 0.1
v -0.6 0.4 0.1
v -0.6 0.5 0.1
v -0.5 0.4 0.1
v -0.5 0.5 0.1
v -1.6 0.1 0
v -1.6 0.2 0
v -1.5 0 0
v -1.5 0.1 0
v -1.5 0.2 0
v -1.4 0 0
v -1.4 0.1 0
v -0.3 0 0
v -0.3 0.1 0
v -0.2 0 0
v -0.2 0.1 0
v -0.2 0.2 0
v -0.1 0.1 0
v -0.1 0.2 0
v -1.1 0.2 -0.2
v -1.1 0.3 -0.2
v -1 0.2 -0.2
v -1 0.3 -0.2
v -0.7 0.2 -0.2
v -0.7 0.3 -0.2
v -0.6 0.2 -0.2
v -0.6 0.3 -0.2
v -1.2 0.3 0
v -1.2 0.4 0
v -1.2 0.5 0
v -0.5 0.3 0
v -0.5 0.4 0
v -0.5 0.5 0
v -1.3 0.2 -0.1
v -1.3 0.3 -0.1
v -1 0.2 -0.1
v -1 0.3 -0.1
v -0.7 0.2 -0.1
v -0.7 0.3 -0.1
v -0.4 0.2 -0.1
v -0.4 0.3 -0.1
v -1.5 0 -0.2
v -1.5 0.1 -0.2
v -1.4 0 -0.2
v -1.4 0.1 -0.2
v -1.1 0 -0.2
v -1.1 0.1 -0.2
v -1 0 -0.2
v -1 0.1 -0.2
v -1 0.2 -0.2
v -0.7 0 -0.2
v -0.7 0.1 -0.2
v -0.7 0.2 -0.2
v -0.6 0 -0.2
v -0.6 0.1 -0.2
v -0.3 0 -0.2
v -0.3 0.1 -0.2
v -0.2 0 -0.2
v -0.2 0.1 -0.2
v -1.6 0.1 -0.3
v -1.6 0.2 -0.3
v -1.4 0 -0.3
v -1.4 0.1 -0.3
v -1.4 0.2 -0.3
v -1.1 0 -0.3
v -1.1 0.1 -0.3
v -1.1 0.2 -0.3
v -1.1 0.3 -0.3
v -1 0 -0.3
v -1 0.1 -0.3
v -1 0.2 -0.3
v -0.7 0 -0.3
v -0.7 0.1 -0.3
v -0.7 0.2 -0.3
v -0.6 0 -0.3
v -0.6 0.1 -0.3
v -0.6 0.2 -0.3
v -0.6 0.3 -0.3
v -0.3 0 -0.3
v -0.3 0.1 -0.3
v -0.3 0.2 -0.3
v -0.1 0.1 -0.3
v -0.1 0.2 -0.3
v -1.4 0.1 -0.4
v -1.4 0.2 -0.4
v -1.1 0.1 -0.4
v -1.1 0.2 -0.4
v -0.6 0.1 -0.4
v -0.6 0.2 -0.4
v -0.3 0.1 -0.4
v -0.3 0.2 -0.4
v -1.1 0 0.8
v -1 0 0.8
v -0.7 0 0.8
v -0.6 0 0.8
v -1.2 0 0.7
v -1.1 0 0.7
v -0.6 0 0.7
v -0.5 0 0.7
v -1.3 0 0.6
v -1.2 0 0.6
v -1 0 0.6
v -0.7 0 0.6
v -0.5 0 0.6
v -0.4 0 0.6
v -1.4 0 0.4
v -1.3 0 0.4
v -0.4 0 0.4
v -0.3 0 0.4
v -1.5 0 0
v -1.4 0 0
v -0.3 0 0
v -0.2 0 0
v -1.5 0 -0.2
v -1.4 0 -0.2
v -1.1 0 -0.2
v -1 0 -0.2
v -0.7 0 -0.2
v -0.6 0 -0.2
v -0.3 0 -0.2
v -0.2 0 -0.2
v -1.4 0 -0.3
v -1.1 0 -0.3
v -1 0 -0.3
v -0.7 0 -0.3
v -0.6 0 -0.3
v -0.3 0 -0.3
v -1.1 0.1 1.5
v -1 0.1 1.5
v -0.7 0.1 1.5
v -0.6 0.1 1.5
v -1.1 0.1 1.4
v -1 0.1 1.4
v -0.7 0.1 1.4
v -0.6 0.1 1.4
v -1.2 0.1 0.8
v -1.1 0.1 0.8
v -1 0.1 0.8
v -0.9 0.1 0.8
v -0.8 0.1 0.8
v -0.7 0.1 0.8
v -0.6 0.1 0.8
v -0.5 0.1 0.8
v -1.3 0.1 0.7
v -1.2 0.1 0.7
v -1.1 0.1 0.7
v -0.9 0.1 0.7
v -0.8 0.1 0.7
v -0.6 0.1 0.7
v -0.5 0.1 0.7
v -0.4 0.1 0.7
v -1.4 0.1 0.6
v -1.3 0.1 0.6
v -1.2 0.1 0.6
v -1 0.1 0.6
v -0.7 0.1 0.6
v -0.5 0.1 0.6
v -0.4 0.1 0.6
v -0.3 0.1 0.6
v -1.5 0.1 0.4
v -1.4 0.1 0.4
v -1.3 0.1 0.4
v -0.4 0.1 0.4
v -0.3 0.1 0.4
v -0.2 0.1 0.4
v -1.6 0.1 0
v -1.5 0.1 0
v -1.4 0.1 0
v -0.3 0.1 0
v -0.2 0.1 0
v -0.1 0.1 0
v -1.5 0.1 -0.2
v -1.4 0.1 -0.2
v -1.1 0.1 -0.2
v -1 0.1 -0.2
v -0.7 0.1 -0.2
v -0.6 0.1 -0.2
v -0.3 0.1 -0.2
v -0.2 0.1 -0.2
v -1.6 0.1 -0.3
v -1.4 0.1 -0.3
v -1.1 0.1 -0.3
v -1 0.1 -0.3
v -0.7 0.1 -0.3
v -0.6 0.1 -0.3
v -0.3 0.1 -0.3
v -0.1 0.1 -0.3
v -1.4 0.1 -0.4
v -1.1 0.1 -0.4
v -0.6 0.1 -0.4
v -0.3 0.1 -0.4
v -1 0.2 -0.2
v -0.7 0.2 -0.2
v -1 0.2 -0.3
v -0.7 0.2 -0.3
v -1 0.1 -0.2
v -0.7 0.1 -0.2
v -1 0.1 -0.3
v -0.7 0.1 -0.3
v -1.1 0.2 1.5
v -1 0.2 1.5
v -0.7 0.2 1.5
v -0.6 0.2 1.5
v -1.1 0.2 1.4
v -1 0.2 1.4
v -0.7 0.2 1.4
v -0.6 0.2 1.4
v -1.2 0.2 0.8
v -1.1 0.2 0.8
v -1 0.2 0.8
v -0.9 0.2 0.8
v -0.8 0.2 0.8
v -0.7 0.2 0.8
v -0.6 0.2 0.8
v -0.5 0.2 0.8
v -1.3 0.2 0.7
v -1.2 0.2 0.7
v -0.9 0.2 0.7
v -0.8 0.2 0.7
v -0.5 0.2 0.7
v -0.4 0.2 0.7
v -1.4 0.2 0.6
v -1.3 0.2 0.6
v -0.4 0.2 0.6
v -0.3 0.2 0.6
v -1.5 0.2 0.4
v -1.4 0.2 0.4
v -0.3 0.2 0.4
v -0.2 0.2 0.4
v -1.2 0.2 0.3
v -1.1 0.2 0.3
v -1 0.2 0.3
v -0.7 0.2 0.3
v -0.6 0.2 0.3
v -0.5 0.2 0.3
v -1.3 0.2 0.2
v -1.2 0.2 0.2
v -0.5 0.2 0.2
v -0.4 0.2 0.2
v -1.6 0.2 0
v -1.5 0.2 0
v -0.2 0.2 0
v -0.1 0.2 0
v -1.3 0.2 -0.1
v -1 0.2 -0.1
v -0.7 0.2 -0.1
v -0.4 0.2 -0.1
v -1.1 0.2 -0.2
v -1 0.2 -0.2
v -0.7 0.2 -0.2
v -0.6 0.2 -0.2
v -1.6 0.2 -0.3
v -1.4 0.2 -0.3
v -1.1 0.2 -0.3
v -0.6 0.2 -0.3
v -0.3 0.2 -0.3
v -0.1 0.2 -0.3
v -1.4 0.2 -0.4
v -1.1 0.2 -0.4
v -0.6 0.2 -0.4
v -0.3 0.2 -0.4
v -1.1 0.3 0.8
v -1 0.3 0.8
v -0.7 0.3 0.8
v -0.6 0.3 0.8
v -1.2 0.3 0.3
v -1.1 0.3 0.3
v -1 0.3 0.3
v -0.7 0.3 0.3
v -0.6 0.3 0.3
v -0.5 0.3 0.3
v -1.3 0.3 0.2
v -1.2 0.3 0.2
v -0.5 0.3 0.2
v -0.4 0.3 0.2
v -1.2 0.3 0
v -0.5 0.3 0
v -1.3 0.3 -0.1
v -1 0.3 -0.1
v -0.7 0.3 -0.1
v -0.4 0.3 -0.1
v -1.1 0.3 -0.2
v -1 0.3 -0.2
v -0.7 0.3 -0.2
v -0.6 0.3 -0.2
v -1.1 0.3 -0.3
v -0.6 0.3 -0.3
v -1.2 0.4 0.2
v -1.1 0.4 0.2
v -0.6 0.4 0.2
v -0.5 0.4 0.2
v -1.2 0.4 0.1
v -1.1 0.4 0.1
v -0.6 0.4 0.1
v -0.5 0.4 0.1
v -1.1 0.5 0.2
v -0.6 0.5 0.2
v -1.2 0.5 0.1
v -1.1 0.5 0.1
v -0.6 0.5 0.1
v -0.5 0.5 0.1
v -1.2 0.5 0
v -0.5 0.5 0

# faces
f 3/3/1 2/3/1 1/3/1
f 4/3/1 2/3/1 3/3/1
f 8/3/1 6/3/1 5/3/1
f 9/3/1 6/3/1 8/3/1
f 10/3/1 8/3/1 7/3/1
f 11/3/1 8/3/1 10/3/1
f 17/3/1 13/3/1 12/3/1
f 18/3/1 13/3/1 17/3/1
f 19/4/1 15/4/1 14/4/1
f 20/4/1 15/4/1 19/4/1
f 22/3/1 17/3/1 16/3/1
f 23/3/1 17/3/1 22/3/1
f 24/4/1 21/4/1 20/4/1
f 25/4/1 21/4/1 24/4/1
f 29/3/1 27/3/1 26/3/1
f 30/3/1 27/3/1 29/3/1
f 31/3/1 29/3/1 28/3/1
f 32/3/1 29/3/1 31/3/1
f 35/3/1 34/3/1 33/3/1
f 36/3/1 34/3/1 35/3/1
f 40/3/1 38/3/1 37/3/1
f 41/3/1 38/3/1 40/3/1
f 42/3/1 40/3/1 39/3/1
f 43/3/1 40/3/1 42/3/1
f 46/3/1 45/3/1 44/3/1
f 47/3/1 45/3/1 46/3/1
f 49/5/1 48/5/1 47/5/1
f 50/5/1 48/5/1 49/5/1
f 51/5/1 48/5/1 50/5/1
f 52/3/1 51/3/1 50/3/1
f 53/3/1 51/3/1 52/3/1
f 58/3/1 55/3/1 54/3/1
f 59/3/1 55/3/1 58/3/1
f 60/4/1 57/4/1 56/4/1
f 61/2/1 58/2/1 57/2/1
f 61/4/1 57/4/1 60/4/1
f 62/2/1 58/2/1 61/2/1
f 66/3/1 63/3/1 62/3/1
f 67/3/1 63/3/1 66/3/1
f 68/3/1 65/3/1 64/3/1
f 69/3/1 65/3/1 68/3/1
f 72/3/1 71/3/1 70/3/1
f 73/3/1 71/3/1 72/3/1
f 76/3/1 75/3/1 74/3/1
f 77/3/1 75/3/1 76/3/1
f 80/3/1 79/3/1 78/3/1
f 81/3/1 79/3/1 80/3/1
f 84/3/1 83/3/1 82/3/1
f 85/3/1 83/3/1 84/3/1
f 90/3/1 87/3/1 86/3/1
f 91/3/1 87/3/1 90/3/1
f 94/4/1 89/4/1 88/4/1
f 95/2/1 90/2/1 89/2/1
f 95/4/1 89/4/1 94/4/1
f 96/2/1 90/2/1 95/2/1
f 98/3/1 93/3/1 92/3/1
f 99/3/1 93/3/1 98/3/1
f 100/3/1 97/3/1 96/3/1
f 101/3/1 97/3/1 100/3/1
f 104/4/1 103/4/1 102/4/1
f 105/4/1 103/4/1 104/4/1
f 107/4/1 106/4/1 105/4/1
f 108/4/1 106/4/1 107/4/1
f 109/4/2 110/4/2 111/4/2
f 111/4/2 110/4/2 112/4/2
f 112/4/2 113/4/2 114/4/2
f 114/4/2 113/4/2 115/4/2
f 116/3/2 117/3/2 120/3/2
f 120/3/2 117/3/2 121/3/2
f 118/4/2 119/4/2 124/4/2
f 119/2/2 120/2/2 125/2/2
f 124/4/2 119/4/2 125/4/2
f 125/2/2 120/2/2 126/2/2
f 122/3/2 123/3/2 128/3/2
f 128/3/2 123/3/2 129/3/2
f 126/3/2 127/3/2 130/3/2
f 130/3/2 127/3/2 131/3/2
f 132/3/2 133/3/2 134/3/2
f 134/3/2 133/3/2 135/3/2
f 136/3/2 137/3/2 138/3/2
f 138/3/2 137/3/2 139/3/2
f 140/3/2 141/3/2 142/3/2
f 142/3/2 141/3/2 143/3/2
f 144/3/2 145/3/2 148/3/2
f 148/3/2 145/3/2 149/3/2
f 146/4/2 147/4/2 150/4/2
f 147/2/2 148/2/2 151/2/2
f 150/4/2 147/4/2 151/4/2
f 151/2/2 148/2/2 152/2/2
f 152/3/2 153/3/2 156/3/2
f 156/3/2 153/3/2 157/3/2
f 154/3/2 155/3/2 158/3/2
f 158/3/2 155/3/2 159/3/2
f 160/3/2 161/3/2 162/3/2
f 162/3/2 161/3/2 163/3/2
f 164/3/2 165/3/2 167/3/2
f 167/3/2 165/3/2 168/3/2
f 166/3/2 167/3/2 169/3/2
f 169/3/2 167/3/2 170/3/2
f 171/3/2 172/3/2 173/3/2
f 173/3/2 172/3/2 174/3/2
f 174/5/2 175/5/2 176/5/2
f 176/5/2 175/5/2 177/5/2
f 177/5/2 175/5/2 178/5/2
f 177/3/2 178/3/2 179/3/2
f 179/3/2 178/3/2 180/3/2
f 181/3/2 182/3/2 184/3/2
f 184/3/2 182/3/2 185/3/2
f 183/3/2 184/3/2 186/3/2
f 186/3/2 184/3/2 187/3/2
f 188/3/2 189/3/2 190/3/2
f 190/3/2 189/3/2 191/3/2
f 192/3/2 193/3/2 197/3/2
f 197/3/2 193/3/2 198/3/2
f 194/4/2 195/4/2 199/4/2
f 199/4/2 195/4/2 200/4/2
f 196/3/2 197/3/2 202/3/2
f 202/3/2 197/3/2 203/3/2
f 200/4/2 201/4/2 204/4/2
f 204/4/2 201/4/2 205/4/2
f 206/3/2 207/3/2 209/3/2
f 209/3/2 207/3/2 210/3/2
f 208/3/2 209/3/2 211/3/2
f 211/3/2 209/3/2 212/3/2
f 213/3/2 214/3/2 215/3/2
f 215/3/2 214/3/2 216/3/2
f 219/4/3 218/4/3 217/4/3
f 220/4/3 218/4/3 219/4/3
f 223/4/3 222/4/3 221/4/3
f 224/4/3 222/4/3 223/4/3
f 228/3/3 226/3/3 225/3/3
f 229/3/3 226/3/3 228/3/3
f 231/3/3 228/3/3 227/3/3
f 232/3/3 228/3/3 231/3/3
f 233/3/3 230/3/3 229/3/3
f 234/3/3 230/3/3 233/3/3
f 235/3/3 233/3/3 232/3/3
f 236/3/3 233/3/3 235/3/3
f 240/3/3 238/3/3 237/3/3
f 241/3/3 238/3/3 240/3/3
f 243/3/3 240/3/3 239/3/3
f 244/3/3 240/3/3 243/3/3
f 245/3/3 242/3/3 241/3/3
f 246/3/3 242/3/3 245/3/3
f 247/3/3 245/3/3 244/3/3
f 248/3/3 245/3/3 247/3/3
f 252/3/3 250/3/3 249/3/3
f 253/3/3 250/3/3 252/3/3
f 254/3/3 252/3/3 251/3/3
f 255/3/3 252/3/3 254/3/3
f 258/3/3 257/3/3 256/3/3
f 259/3/3 257/3/3 258/3/3
f 262/3/3 261/3/3 260/3/3
f 263/3/3 261/3/3 262/3/3
f 265/3/3 264/3/3 263/3/3
f 266/3/3 264/3/3 265/3/3
f 270/3/3 268/3/3 267/3/3
f 271/3/3 268/3/3 270/3/3
f 272/3/3 270/3/3 269/3/3
f 273/3/3 270/3/3 272/3/3
f 276/3/3 275/3/3 274/3/3
f 277/3/3 275/3/3 276/3/3
f 280/3/3 279/3/3 278/3/3
f 281/3/3 279/3/3 280/3/3
f 283/3/3 282/3/3 281/3/3
f 284/3/3 282/3/3 283/3/3
f 288/3/3 286/3/3 285/3/3
f 289/3/3 286/3/3 288/3/3
f 290/3/3 288/3/3 287/3/3
f 291/3/3 288/3/3 290/3/3
f 294/3/3 293/3/3 292/3/3
f 295/3/3 293/3/3 294/3/3
f 297/3/3 296/3/3 295/3/3
f 298/3/3 296/3/3 297/3/3
f 301/3/3 300/3/3 299/3/3
f 302/3/3 300/3/3 301/3/3
f 305/3/3 304/3/3 303/3/3
f 306/3/3 304/3/3 305/3/3
f 309/3/3 308/3/3 307/3/3
f 310/3/3 308/3/3 309/3/3
f 313/3/3 312/3/3 311/3/3
f 314/3/3 312/3/3 313/3/3
f 316/5/3 315/5/3 314/5/3
f 318/5/3 316/5/3 314/5/3
f 318/3/3 317/3/3 316/3/3
f 319/3/3 317/3/3 318/3/3
f 321/5/3 318/5/3 314/5/3
f 322/5/3 318/5/3 321/5/3
f 323/3/3 321/3/3 320/3/3
f 324/3/3 321/3/3 323/3/3
f 327/3/3 326/3/3 325/3/3
f 328/3/3 326/3/3 327/3/3
f 331/3/3 330/3/3 329/3/3
f 332/3/3 330/3/3 331/3/3
f 336/3/3 334/3/3 333/3/3
f 337/3/3 334/3/3 336/3/3
f 338/3/3 336/3/3 335/3/3
f 339/3/3 336/3/3 338/3/3
f 342/3/3 341/3/3 340/3/3
f 343/3/3 341/3/3 342/3/3
f 345/3/3 344/3/3 343/3/3
f 346/3/3 344/3/3 345/3/3
f 349/3/3 348/3/3 347/3/3
f 350/3/3 348/3/3 349/3/3
f 353/3/3 352/3/3 351/3/3
f 354/3/3 352/3/3 353/3/3
f 355/5/4 356/5/4 358/5/4
f 356/3/4 357/3/4 359/3/4
f 358/5/4 356/5/4 359/5/4
f 359/3/4 357/3/4 360/3/4
f 361/3/4 362/3/4 363/3/4
f 363/3/4 362/3/4 364/3/4
f 365/3/4 366/3/4 367/3/4
f 367/3/4 366/3/4 368/3/4
f 369/3/4 370/3/4 371/3/4
f 371/3/4 370/3/4 372/3/4
f 373/3/4 374/3/4 375/3/4
f 375/3/4 374/3/4 376/3/4
f 376/1/4 377/1/4 379/1/4
f 379/1/4 377/1/4 380/1/4
f 378/3/4 379/3/4 381/3/4
f 381/3/4 379/3/4 382/3/4
f 383/3/4 384/3/4 385/3/4
f 385/3/4 384/3/4 386/3/4
f 387/3/4 388/3/4 390/3/4
f 390/3/4 388/3/4 391/3/4
f 389/4/4 390/4/4 392/4/4
f 392/4/4 390/4/4 393/4/4
f 393/3/4 394/3/4 397/3/4
f 394/3/4 395/3/4 397/3/4
f 397/3/4 395/3/4 398/3/4
f 396/3/4 397/3/4 399/3/4
f 399/3/4 397/3/4 400/3/4
f 398/3/4 395/3/4 401/3/4
f 400/3/4 401/3/4 403/3/4
f 401/3/4 395/3/4 404/3/4
f 403/3/4 401/3/4 404/3/4
f 404/3/4 395/3/4 405/3/4
f 402/4/4 403/4/4 406/4/4
f 406/4/4 403/4/4 407/4/4
f 407/3/4 408/3/4 409/3/4
f 409/3/4 408/3/4 410/3/4
f 411/4/4 412/4/4 413/4/4
f 413/4/4 412/4/4 414/4/4
f 415/4/4 416/4/4 417/4/4
f 417/4/4 416/4/4 418/4/4
f 424/3/5 420/3/5 419/3/5
f 425/3/5 422/3/5 421/3/5
f 428/3/5 424/3/5 423/3/5
f 429/3/5 420/3/5 424/3/5
f 429/3/5 424/3/5 428/3/5
f 430/3/5 426/3/5 425/3/5
f 430/3/5 425/3/5 421/3/5
f 431/3/5 426/3/5 430/3/5
f 434/3/5 429/3/5 428/3/5
f 434/3/5 432/3/5 431/3/5
f 434/3/5 431/3/5 430/3/5
f 434/3/5 430/3/5 429/3/5
f 434/3/5 428/3/5 427/3/5
f 435/3/5 432/3/5 434/3/5
f 438/3/5 434/3/5 433/3/5
f 438/3/5 436/3/5 435/3/5
f 438/3/5 435/3/5 434/3/5
f 439/3/5 436/3/5 438/3/5
f 441/3/5 438/3/5 437/3/5
f 441/3/5 440/3/5 439/3/5
f 441/3/5 439/3/5 438/3/5
f 442/3/5 440/3/5 441/3/5
f 443/3/5 440/3/5 442/3/5
f 444/3/5 440/3/5 443/3/5
f 445/3/5 440/3/5 444/3/5
f 446/3/5 440/3/5 445/3/5
f 447/3/5 440/3/5 446/3/5
f 448/3/5 440/3/5 447/3/5
f 449/4/5 443/4/5 442/4/5
f 450/4/5 443/4/5 449/4/5
f 451/3/5 445/3/5 444/3/5
f 452/3/5 445/3/5 451/3/5
f 453/4/5 447/4/5 446/4/5
f 454/4/5 447/4/5 453/4/5
f 459/4/5 456/4/5 455/4/5
f 460/4/5 456/4/5 459/4/5
f 461/4/5 458/4/5 457/4/5
f 462/4/5 458/4/5 461/4/5
f 464/2/5 460/2/5 459/2/5
f 465/2/5 460/2/5 464/2/5
f 468/2/5 462/2/5 461/2/5
f 469/2/5 462/2/5 468/2/5
f 472/3/5 464/3/5 463/3/5
f 473/3/5 464/3/5 472/3/5
f 474/3/5 466/3/5 465/3/5
f 475/3/5 468/3/5 467/3/5
f 476/3/5 470/3/5 469/3/5
f 477/3/5 470/3/5 476/3/5
f 480/3/5 472/3/5 471/3/5
f 481/3/5 472/3/5 480/3/5
f 482/3/5 475/3/5 474/3/5
f 482/3/5 474/3/5 465/3/5
f 483/3/5 468/3/5 475/3/5
f 483/3/5 475/3/5 482/3/5
f 484/3/5 478/3/5 477/3/5
f 485/3/5 478/3/5 484/3/5
f 488/3/5 480/3/5 479/3/5
f 489/3/5 480/3/5 488/3/5
f 490/3/5 486/3/5 485/3/5
f 491/3/5 486/3/5 490/3/5
f 494/3/5 488/3/5 487/3/5
f 495/3/5 488/3/5 494/3/5
f 496/3/5 492/3/5 491/3/5
f 497/3/5 492/3/5 496/3/5
f 499/3/5 494/3/5 493/3/5
f 506/3/5 498/3/5 497/3/5
f 507/3/5 499/3/5 493/3/5
f 507/3/5 500/3/5 499/3/5
f 508/3/5 500/3/5 507/3/5
f 509/3/5 502/3/5 501/3/5
f 510/3/5 502/3/5 509/3/5
f 511/3/5 504/3/5 503/3/5
f 512/3/5 504/3/5 511/3/5
f 513/3/5 506/3/5 505/3/5
f 514/3/5 498/3/5 506/3/5
f 514/3/5 506/3/5 513/3/5
f 515/4/5 509/4/5 508/4/5
f 516/4/5 509/4/5 515/4/5
f 517/4/5 513/4/5 512/4/5
f 518/4/5 513/4/5 517/4/5
f 521/3/5 520/3/5 519/3/5
f 522/3/5 520/3/5 521/3/5
f 523/3/6 524/3/6 525/3/6
f 525/3/6 524/3/6 526/3/6
f 527/4/6 528/4/6 531/4/6
f 531/4/6 528/4/6 532/4/6
f 529/4/6 530/4/6 533/4/6
f 533/4/6 530/4/6 534/4/6
f 531/2/6 532/2/6 536/2/6
f 536/2/6 532/2/6 537/2/6
f 533/2/6 534/2/6 540/2/6
f 540/2/6 534/2/6 541/2/6
f 535/3/6 536/3/6 544/3/6
f 537/3/6 538/3/6 545/3/6
f 539/3/6 540/3/6 546/3/6
f 541/3/6 542/3/6 547/3/6
f 543/3/6 544/3/6 550/3/6
f 547/3/6 548/3/6 551/3/6
f 549/3/6 550/3/6 554/3/6
f 551/3/6 552/3/6 555/3/6
f 553/3/6 554/3/6 557/3/6
f 544/3/6 536/3/6 557/3/6
f 550/3/6 544/3/6 557/3/6
f 554/3/6 550/3/6 557/3/6
f 557/3/6 536/3/6 558/3/6
f 545/3/6 546/3/6 559/3/6
f 537/3/6 545/3/6 559/3/6
f 546/3/6 540/3/6 560/3/6
f 559/3/6 546/3/6 560/3/6
f 555/3/6 556/3/6 561/3/6
f 551/3/6 555/3/6 561/3/6
f 547/3/6 551/3/6 561/3/6
f 541/3/6 547/3/6 561/3/6
f 561/3/6 556/3/6 562/3/6
f 553/3/6 557/3/6 563/3/6
f 563/3/6 557/3/6 564/3/6
f 562/3/6 556/3/6 565/3/6
f 565/3/6 556/3/6 566/3/6
f 553/3/6 563/3/6 568/3/6
f 566/3/6 556/3/6 569/3/6
f 567/3/6 568/3/6 571/3/6
f 568/3/6 563/3/6 571/3/6
f 569/3/6 570/3/6 574/3/6
f 566/3/6 569/3/6 574/3/6
f 571/3/6 572/3/6 575/3/6
f 575/3/6 572/3/6 576/3/6
f 573/3/6 574/3/6 577/3/6
f 577/3/6 574/3/6 578/3/6
f 567/3/6 571/3/6 579/3/6
f 571/3/6 575/3/6 579/3/6
f 579/3/6 575/3/6 580/3/6
f 580/3/6 575/3/6 581/3/6
f 578/3/6 574/3/6 582/3/6
f 574/3/6 570/3/6 583/3/6
f 582/3/6 574/3/6 583/3/6
f 583/3/6 570/3/6 584/3/6
f 580/4/6 581/4/6 585/4/6
f 585/4/6 581/4/6 586/4/6
f 582/4/6 583/4/6 587/4/6
f 587/4/6 583/4/6 588/4/6
f 589/3/6 590/3/6 594/3/6
f 594/3/6 590/3/6 595/3/6
f 591/3/6 592/3/6 596/3/6
f 596/3/6 592/3/6 597/3/6
f 594/3/6 595/3/6 600/3/6
f 597/3/6 598/3/6 600/3/6
f 596/3/6 597/3/6 600/3/6
f 595/3/6 596/3/6 600/3/6
f 593/3/6 594/3/6 600/3/6
f 600/3/6 598/3/6 601/3/6
f 599/3/6 600/3/6 603/3/6
f 601/3/6 602/3/6 604/3/6
f 599/3/6 603/3/6 605/3/6
f 603/3/6 604/3/6 605/3/6
f 605/3/6 604/3/6 606/3/6
f 606/3/6 604/3/6 607/3/6
f 604/3/6 602/3/6 608/3/6
f 607/3/6 604/3/6 608/3/6
f 606/3/6 607/3/6 610/3/6
f 610/3/6 607/3/6 611/3/6
f 609/3/6 610/3/6 613/3/6
f 611/3/6 612/3/6 613/3/6
f 610/3/6 611/3/6 613/3/6
f 613/3/6 612/3/6 614/3/6
f 615/5/6 616/5/6 619/5/6
f 619/5/6 616/5/6 620/5/6
f 617/5/6 618/5/6 621/5/6
f 621/5/6 618/5/6 622/5/6
f 623/3/6 624/3/6 626/3/6
f 626/3/6 624/3/6 627/3/6
f 625/3/6 626/3/6 629/3/6
f 627/3/6 628/3/6 629/3/6
f 626/3/6 627/3/6 629/3/6
f 629/3/6 628/3/6 630/3/6
