# MagicaVoxel @ Ephtracy

# group
o 

# material
mtllib space_Ship_2.mtl
usemtl palette

# normals
vn -1 0 0
vn 1 0 0
vn 0 0 1
vn 0 0 -1
vn 0 -1 0
vn 0 1 0

# texcoords
vt 0.845703 0.5
vt 0.919922 0.5
vt 0.958984 0.5
vt 0.982422 0.5
vt 0.994141 0.5

# verts
v -1.6 0.1 0
v -1.6 0.1 -0.3
v -1.6 0.2 0
v -1.6 0.2 -0.3
v -1.5 0 0
v -1.5 0 -0.2
v -1.5 0.1 0.4
v -1.5 0.1 0
v -1.5 0.1 -0.2
v -1.5 0.2 0.4
v -1.5 0.2 0
v -1.4 0 0.4
v -1.4 0 0
v -1.4 0 -0.2
v -1.4 0 -0.3
v -1.4 0.1 0.6
v -1.4 0.1 0.4
v -1.4 0.1 0
v -1.4 0.1 -0.2
v -1.4 0.1 -0.3
v -1.4 0.1 -0.4
v -1.4 0.2 0.6
v -1.4 0.2 0.4
v -1.4 0.2 -0.3
v -1.4 0.2 -0.4
v -1.3 0 0.6
v -1.3 0 0.4
v -1.3 0.1 0.7
v -1.3 0.1 0.6
v -1.3 0.1 0.4
v -1.3 0.2 0.7
v -1.3 0.2 0.6
v -1.3 0.2 0.2
v -1.3 0.2 -0.1
v -1.3 0.3 0.2
v -1.3 0.3 -0.1
v -1.2 0 0.7
v -1.2 0 0.6
v -1.2 0.1 0.8
v -1.2 0.1 0.7
v -1.2 0.1 0.6
v -1.2 0.2 0.8
v -1.2 0.2 0.7
v -1.2 0.2 0.3
v -1.2 0.2 0.2
v -1.2 0.3 0.3
v -1.2 0.3 0.2
v -1.2 0.3 0
v -1.2 0.4 0.2
v -1.2 0.4 0.1
v -1.2 0.4 0
v -1.2 0.5 0.1
v -1.2 0.5 0
v -1.1 0 0.8
v -1.1 0 0.7
v -1.1 0.1 0.9
v -1.1 0.1 0.8
v -1.1 0.1 0.7
v -1.1 0.2 0.9
v -1.1 0.2 0.8
v -1.1 0.2 0.3
v -1.1 0.2 -0.2
v -1.1 0.2 -0.3
v -1.1 0.3 0.8
v -1.1 0.3 0.3
v -1.1 0.3 -0.2
v -1.1 0.3 -0.3
v -1.1 0.4 0.2
v -1.1 0.4 0.1
v -1.1 0.5 0.2
v -1.1 0.5 0.1
v -1 0 -0.2
v -1 0 -0.3
v -1 0.1 -0.2
v -1 0.1 -0.3
v -1 0.2 -0.1
v -1 0.2 -0.2
v -1 0.3 -0.1
v -1 0.3 -0.2
v -0.8 0.1 0.8
v -0.8 0.1 0.7
v -0.8 0.2 0.8
v -0.8 0.2 0.7
v -0.7 0 0.8
v -0.7 0 0.6
v -0.7 0.1 0.9
v -0.7 0.1 0.8
v -0.7 0.1 0.6
v -0.7 0.1 -0.2
v -0.7 0.1 -0.3
v -0.7 0.2 0.9
v -0.7 0.2 0.8
v -0.7 0.2 0.3
v -0.7 0.2 -0.2
v -0.7 0.2 -0.3
v -0.7 0.3 0.8
v -0.7 0.3 0.3
v -0.6 0 -0.2
v -0.6 0 -0.3
v -0.6 0.1 -0.2
v -0.6 0.1 -0.3
v -0.6 0.1 -0.4
v -0.6 0.2 -0.3
v -0.6 0.2 -0.4
v -1.1 0 -0.2
v -1.1 0 -0.3
v -1.1 0.1 -0.2
v -1.1 0.1 -0.3
v -1.1 0.1 -0.4
v -1.1 0.2 -0.3
v -1.1 0.2 -0.4
v -1 0 0.8
v -1 0 0.6
v -1 0.1 0.9
v -1 0.1 0.8
v -1 0.1 0.6
v -1 0.1 -0.2
v -1 0.1 -0.3
v -1 0.2 0.9
v -1 0.2 0.8
v -1 0.2 0.3
v -1 0.2 -0.2
v -1 0.2 -0.3
v -1 0.3 0.8
v -1 0.3 0.3
v -0.9 0.1 0.8
v -0.9 0.1 0.7
v -0.9 0.2 0.8
v -0.9 0.2 0.7
v -0.7 0 -0.2
v -0.7 0 -0.3
v -0.7 0.1 -0.2
v -0.7 0.1 -0.3
v -0.7 0.2 -0.1
v -0.7 0.2 -0.2
v -0.7 0.3 -0.1
v -0.7 0.3 -0.2
v -0.6 0 0.8
v -0.6 0 0.7
v -0.6 0.1 0.9
v -0.6 0.1 0.8
v -0.6 0.1 0.7
v -0.6 0.2 0.9
v -0.6 0.2 0.8
v -0.6 0.2 0.3
v -0.6 0.2 -0.2
v -0.6 0.2 -0.3
v -0.6 0.3 0.8
v -0.6 0.3 0.3
v -0.6 0.3 -0.2
v -0.6 0.3 -0.3
v -0.6 0.4 0.2
v -0.6 0.4 0.1
v -0.6 0.5 0.2
v -0.6 0.5 0.1
v -0.5 0 0.7
v -0.5 0 0.6
v -0.5 0.1 0.8
v -0.5 0.1 0.7
v -0.5 0.1 0.6
v -0.5 0.2 0.8
v -0.5 0.2 0.7
v -0.5 0.2 0.3
v -0.5 0.2 0.2
v -0.5 0.3 0.3
v -0.5 0.3 0.2
v -0.5 0.3 0
v -0.5 0.4 0.2
v -0.5 0.4 0.1
v -0.5 0.4 0
v -0.5 0.5 0.1
v -0.5 0.5 0
v -0.4 0 0.6
v -0.4 0 0.4
v -0.4 0.1 0.7
v -0.4 0.1 0.6
v -0.4 0.1 0.4
v -0.4 0.2 0.7
v -0.4 0.2 0.6
v -0.4 0.2 0.2
v -0.4 0.2 -0.1
v -0.4 0.3 0.2
v -0.4 0.3 -0.1
v -0.3 0 0.4
v -0.3 0 0
v -0.3 0 -0.2
v -0.3 0 -0.3
v -0.3 0.1 0.6
v -0.3 0.1 0.4
v -0.3 0.1 0
v -0.3 0.1 -0.2
v -0.3 0.1 -0.3
v -0.3 0.1 -0.4
v -0.3 0.2 0.6
v -0.3 0.2 0.4
v -0.3 0.2 -0.3
v -0.3 0.2 -0.4
v -0.2 0 0
v -0.2 0 -0.2
v -0.2 0.1 0.4
v -0.2 0.1 0
v -0.2 0.1 -0.2
v -0.2 0.2 0.4
v -0.2 0.2 0
v -0.1 0.1 0
v -0.1 0.1 -0.3
v -0.1 0.2 0
v -0.1 0.2 -0.3
v -1.1 0.1 0.9
v -1.1 0.2 0.9
v -1 0.1 0.9
v -1 0.2 0.9
v -0.7 0.1 0.9
v -0.7 0.2 0.9
v -0.6 0.1 0.9
v -0.6 0.2 0.9
v -1.2 0.1 0.8
v -1.2 0.2 0.8
v -1.1 0 0.8
v -1.1 0.1 0.8
v -1.1 0.2 0.8
v -1.1 0.3 0.8
v -1 0 0.8
v -1 0.1 0.8
v -1 0.2 0.8
v -1 0.3 0.8
v -0.9 0.1 0.8
v -0.9 0.2 0.8
v -0.8 0.1 0.8
v -0.8 0.2 0.8
v -0.7 0 0.8
v -0.7 0.1 0.8
v -0.7 0.2 0.8
v -0.7 0.3 0.8
v -0.6 0 0.8
v -0.6 0.1 0.8
v -0.6 0.2 0.8
v -0.6 0.3 0.8
v -0.5 0.1 0.8
v -0.5 0.2 0.8
v -1.3 0.1 0.7
v -1.3 0.2 0.7
v -1.2 0 0.7
v -1.2 0.1 0.7
v -1.2 0.2 0.7
v -1.1 0 0.7
v -1.1 0.1 0.7
v -0.9 0.1 0.7
v -0.9 0.2 0.7
v -0.8 0.1 0.7
v -0.8 0.2 0.7
v -0.6 0 0.7
v -0.6 0.1 0.7
v -0.5 0 0.7
v -0.5 0.1 0.7
v -0.5 0.2 0.7
v -0.4 0.1 0.7
v -0.4 0.2 0.7
v -1.4 0.1 0.6
v -1.4 0.2 0.6
v -1.3 0 0.6
v -1.3 0.1 0.6
v -1.3 0.2 0.6
v -1.2 0 0.6
v -1.2 0.1 0.6
v -1 0 0.6
v -1 0.1 0.6
v -0.7 0 0.6
v -0.7 0.1 0.6
v -0.5 0 0.6
v -0.5 0.1 0.6
v -0.4 0 0.6
v -0.4 0.1 0.6
v -0.4 0.2 0.6
v -0.3 0.1 0.6
v -0.3 0.2 0.6
v -1.5 0.1 0.4
v -1.5 0.2 0.4
v -1.4 0 0.4
v -1.4 0.1 0.4
v -1.4 0.2 0.4
v -1.3 0 0.4
v -1.3 0.1 0.4
v -0.4 0 0.4
v -0.4 0.1 0.4
v -0.3 0 0.4
v -0.3 0.1 0.4
v -0.3 0.2 0.4
v -0.2 0.1 0.4
v -0.2 0.2 0.4
v -1.2 0.2 0.3
v -1.2 0.3 0.3
v -1.1 0.2 0.3
v -1.1 0.3 0.3
v -1 0.2 0.3
v -1 0.3 0.3
v -0.7 0.2 0.3
v -0.7 0.3 0.3
v -0.6 0.2 0.3
v -0.6 0.3 0.3
v -0.5 0.2 0.3
v -0.5 0.3 0.3
v -1.3 0.2 0.2
v -1.3 0.3 0.2
v -1.2 0.2 0.2
v -1.2 0.3 0.2
v -1.2 0.4 0.2
v -1.1 0.4 0.2
v -1.1 0.5 0.2
v -0.6 0.4 0.2
v -0.6 0.5 0.2
v -0.5 0.2 0.2
v -0.5 0.3 0.2
v -0.5 0.4 0.2
v -0.4 0.2 0.2
v -0.4 0.3 0.2
v -1.2 0.4 0.1
v -1.2 0.5 0.1
v -1.1 0.4 0.1
v -1.1 0.5 0.1
v -0.6 0.4 0.1
v -0.6 0.5 0.1
v -0.5 0.4 0.1
v -0.5 0.5 0.1
v -1.6 0.1 0
v -1.6 0.2 0
v -1.5 0 0
v -1.5 0.1 0
v -1.5 0.2 0
v -1.4 0 0
v -1.4 0.1 0
v -0.3 0 0
v -0.3 0.1 0
v -0.2 0 0
v -0.2 0.1 0
v -0.2 0.2 0
v -0.1 0.1 0
v -0.1 0.2 0
v -1.1 0.2 -0.2
v -1.1 0.3 -0.2
v -1 0.2 -0.2
v -1 0.3 -0.2
v -0.7 0.2 -0.2
v -0.7 0.3 -0.2
v -0.6 0.2 -0.2
v -0.6 0.3 -0.2
v -1.2 0.3 0
v -1.2 0.4 0
v -1.2 0.5 0
v -0.5 0.3 0
v -0.5 0.4 0
v -0.5 0.5 0
v -1.3 0.2 -0.1
v -1.3 0.3 -0.1
v -1 0.2 -0.1
v -1 0.3 -0.1
v -0.7 0.2 -0.1
v -0.7 0.3 -0.1
v -0.4 0.2 -0.1
v -0.4 0.3 -0.1
v -1.5 0 -0.2
v -1.5 0.1 -0.2
v -1.4 0 -0.2
v -1.4 0.1 -0.2
v -1.1 0 -0.2
v -1.1 0.1 -0.2
v -1 0 -0.2
v -1 0.1 -0.2
v -1 0.2 -0.2
v -0.7 0 -0.2
v -0.7 0.1 -0.2
v -0.7 0.2 -0.2
v -0.6 0 -0.2
v -0.6 0.1 -0.2
v -0.3 0 -0.2
v -0.3 0.1 -0.2
v -0.2 0 -0.2
v -0.2 0.1 -0.2
v -1.6 0.1 -0.3
v -1.6 0.2 -0.3
v -1.4 0 -0.3
v -1.4 0.1 -0.3
v -1.4 0.2 -0.3
v -1.1 0 -0.3
v -1.1 0.1 -0.3
v -1.1 0.2 -0.3
v -1.1 0.3 -0.3
v -1 0 -0.3
v -1 0.1 -0.3
v -1 0.2 -0.3
v -0.7 0 -0.3
v -0.7 0.1 -0.3
v -0.7 0.2 -0.3
v -0.6 0 -0.3
v -0.6 0.1 -0.3
v -0.6 0.2 -0.3
v -0.6 0.3 -0.3
v -0.3 0 -0.3
v -0.3 0.1 -0.3
v -0.3 0.2 -0.3
v -0.1 0.1 -0.3
v -0.1 0.2 -0.3
v -1.4 0.1 -0.4
v -1.4 0.2 -0.4
v -1.1 0.1 -0.4
v -1.1 0.2 -0.4
v -0.6 0.1 -0.4
v -0.6 0.2 -0.4
v -0.3 0.1 -0.4
v -0.3 0.2 -0.4
v -1.1 0 0.8
v -1 0 0.8
v -0.7 0 0.8
v -0.6 0 0.8
v -1.2 0 0.7
v -1.1 0 0.7
v -0.6 0 0.7
v -0.5 0 0.7
v -1.3 0 0.6
v -1.2 0 0.6
v -1 0 0.6
v -0.7 0 0.6
v -0.5 0 0.6
v -0.4 0 0.6
v -1.4 0 0.4
v -1.3 0 0.4
v -0.4 0 0.4
v -0.3 0 0.4
v -1.5 0 0
v -1.4 0 0
v -0.3 0 0
v -0.2 0 0
v -1.5 0 -0.2
v -1.4 0 -0.2
v -1.1 0 -0.2
v -1 0 -0.2
v -0.7 0 -0.2
v -0.6 0 -0.2
v -0.3 0 -0.2
v -0.2 0 -0.2
v -1.4 0 -0.3
v -1.1 0 -0.3
v -1 0 -0.3
v -0.7 0 -0.3
v -0.6 0 -0.3
v -0.3 0 -0.3
v -1.1 0.1 0.9
v -1 0.1 0.9
v -0.7 0.1 0.9
v -0.6 0.1 0.9
v -1.2 0.1 0.8
v -1.1 0.1 0.8
v -1 0.1 0.8
v -0.9 0.1 0.8
v -0.8 0.1 0.8
v -0.7 0.1 0.8
v -0.6 0.1 0.8
v -0.5 0.1 0.8
v -1.3 0.1 0.7
v -1.2 0.1 0.7
v -1.1 0.1 0.7
v -0.9 0.1 0.7
v -0.8 0.1 0.7
v -0.6 0.1 0.7
v -0.5 0.1 0.7
v -0.4 0.1 0.7
v -1.4 0.1 0.6
v -1.3 0.1 0.6
v -1.2 0.1 0.6
v -1 0.1 0.6
v -0.7 0.1 0.6
v -0.5 0.1 0.6
v -0.4 0.1 0.6
v -0.3 0.1 0.6
v -1.5 0.1 0.4
v -1.4 0.1 0.4
v -1.3 0.1 0.4
v -0.4 0.1 0.4
v -0.3 0.1 0.4
v -0.2 0.1 0.4
v -1.6 0.1 0
v -1.5 0.1 0
v -1.4 0.1 0
v -0.3 0.1 0
v -0.2 0.1 0
v -0.1 0.1 0
v -1.5 0.1 -0.2
v -1.4 0.1 -0.2
v -1.1 0.1 -0.2
v -1 0.1 -0.2
v -0.7 0.1 -0.2
v -0.6 0.1 -0.2
v -0.3 0.1 -0.2
v -0.2 0.1 -0.2
v -1.6 0.1 -0.3
v -1.4 0.1 -0.3
v -1.1 0.1 -0.3
v -1 0.1 -0.3
v -0.7 0.1 -0.3
v -0.6 0.1 -0.3
v -0.3 0.1 -0.3
v -0.1 0.1 -0.3
v -1.4 0.1 -0.4
v -1.1 0.1 -0.4
v -0.6 0.1 -0.4
v -0.3 0.1 -0.4
v -1 0.2 -0.2
v -0.7 0.2 -0.2
v -1 0.2 -0.3
v -0.7 0.2 -0.3
v -1 0.1 -0.2
v -0.7 0.1 -0.2
v -1 0.1 -0.3
v -0.7 0.1 -0.3
v -1.1 0.2 0.9
v -1 0.2 0.9
v -0.7 0.2 0.9
v -0.6 0.2 0.9
v -1.2 0.2 0.8
v -1.1 0.2 0.8
v -1 0.2 0.8
v -0.9 0.2 0.8
v -0.8 0.2 0.8
v -0.7 0.2 0.8
v -0.6 0.2 0.8
v -0.5 0.2 0.8
v -1.3 0.2 0.7
v -1.2 0.2 0.7
v -0.9 0.2 0.7
v -0.8 0.2 0.7
v -0.5 0.2 0.7
v -0.4 0.2 0.7
v -1.4 0.2 0.6
v -1.3 0.2 0.6
v -0.4 0.2 0.6
v -0.3 0.2 0.6
v -1.5 0.2 0.4
v -1.4 0.2 0.4
v -0.3 0.2 0.4
v -0.2 0.2 0.4
v -1.2 0.2 0.3
v -1.1 0.2 0.3
v -1 0.2 0.3
v -0.7 0.2 0.3
v -0.6 0.2 0.3
v -0.5 0.2 0.3
v -1.3 0.2 0.2
v -1.2 0.2 0.2
v -0.5 0.2 0.2
v -0.4 0.2 0.2
v -1.6 0.2 0
v -1.5 0.2 0
v -0.2 0.2 0
v -0.1 0.2 0
v -1.3 0.2 -0.1
v -1 0.2 -0.1
v -0.7 0.2 -0.1
v -0.4 0.2 -0.1
v -1.1 0.2 -0.2
v -1 0.2 -0.2
v -0.7 0.2 -0.2
v -0.6 0.2 -0.2
v -1.6 0.2 -0.3
v -1.4 0.2 -0.3
v -1.1 0.2 -0.3
v -0.6 0.2 -0.3
v -0.3 0.2 -0.3
v -0.1 0.2 -0.3
v -1.4 0.2 -0.4
v -1.1 0.2 -0.4
v -0.6 0.2 -0.4
v -0.3 0.2 -0.4
v -1.1 0.3 0.8
v -1 0.3 0.8
v -0.7 0.3 0.8
v -0.6 0.3 0.8
v -1.2 0.3 0.3
v -1.1 0.3 0.3
v -1 0.3 0.3
v -0.7 0.3 0.3
v -0.6 0.3 0.3
v -0.5 0.3 0.3
v -1.3 0.3 0.2
v -1.2 0.3 0.2
v -0.5 0.3 0.2
v -0.4 0.3 0.2
v -1.2 0.3 0
v -0.5 0.3 0
v -1.3 0.3 -0.1
v -1 0.3 -0.1
v -0.7 0.3 -0.1
v -0.4 0.3 -0.1
v -1.1 0.3 -0.2
v -1 0.3 -0.2
v -0.7 0.3 -0.2
v -0.6 0.3 -0.2
v -1.1 0.3 -0.3
v -0.6 0.3 -0.3
v -1.2 0.4 0.2
v -1.1 0.4 0.2
v -0.6 0.4 0.2
v -0.5 0.4 0.2
v -1.2 0.4 0.1
v -1.1 0.4 0.1
v -0.6 0.4 0.1
v -0.5 0.4 0.1
v -1.1 0.5 0.2
v -0.6 0.5 0.2
v -1.2 0.5 0.1
v -1.1 0.5 0.1
v -0.6 0.5 0.1
v -0.5 0.5 0.1
v -1.2 0.5 0
v -0.5 0.5 0

# faces
f 3/3/1 2/3/1 1/3/1
f 4/3/1 2/3/1 3/3/1
f 8/3/1 6/3/1 5/3/1
f 9/3/1 6/3/1 8/3/1
f 10/3/1 8/3/1 7/3/1
f 11/3/1 8/3/1 10/3/1
f 17/3/1 13/3/1 12/3/1
f 18/3/1 13/3/1 17/3/1
f 19/4/1 15/4/1 14/4/1
f 20/4/1 15/4/1 19/4/1
f 22/3/1 17/3/1 16/3/1
f 23/3/1 17/3/1 22/3/1
f 24/4/1 21/4/1 20/4/1
f 25/4/1 21/4/1 24/4/1
f 29/3/1 27/3/1 26/3/1
f 30/3/1 27/3/1 29/3/1
f 31/3/1 29/3/1 28/3/1
f 32/3/1 29/3/1 31/3/1
f 35/3/1 34/3/1 33/3/1
f 36/3/1 34/3/1 35/3/1
f 40/3/1 38/3/1 37/3/1
f 41/3/1 38/3/1 40/3/1
f 42/3/1 40/3/1 39/3/1
f 43/3/1 40/3/1 42/3/1
f 46/3/1 45/3/1 44/3/1
f 47/3/1 45/3/1 46/3/1
f 49/5/1 48/5/1 47/5/1
f 50/5/1 48/5/1 49/5/1
f 51/5/1 48/5/1 50/5/1
f 52/3/1 51/3/1 50/3/1
f 53/3/1 51/3/1 52/3/1
f 57/3/1 55/3/1 54/3/1
f 58/3/1 55/3/1 57/3/1
f 59/4/1 57/4/1 56/4/1
f 60/4/1 57/4/1 59/4/1
f 64/3/1 61/3/1 60/3/1
f 65/3/1 61/3/1 64/3/1
f 66/3/1 63/3/1 62/3/1
f 67/3/1 63/3/1 66/3/1
f 70/3/1 69/3/1 68/3/1
f 71/3/1 69/3/1 70/3/1
f 74/3/1 73/3/1 72/3/1
f 75/3/1 73/3/1 74/3/1
f 78/3/1 77/3/1 76/3/1
f 79/3/1 77/3/1 78/3/1
f 82/3/1 81/3/1 80/3/1
f 83/3/1 81/3/1 82/3/1
f 87/3/1 85/3/1 84/3/1
f 88/3/1 85/3/1 87/3/1
f 91/4/1 87/4/1 86/4/1
f 92/4/1 87/4/1 91/4/1
f 94/3/1 90/3/1 89/3/1
f 95/3/1 90/3/1 94/3/1
f 96/3/1 93/3/1 92/3/1
f 97/3/1 93/3/1 96/3/1
f 100/4/1 99/4/1 98/4/1
f 101/4/1 99/4/1 100/4/1
f 103/4/1 102/4/1 101/4/1
f 104/4/1 102/4/1 103/4/1
f 105/4/2 106/4/2 107/4/2
f 107/4/2 106/4/2 108/4/2
f 108/4/2 109/4/2 110/4/2
f 110/4/2 109/4/2 111/4/2
f 112/3/2 113/3/2 115/3/2
f 115/3/2 113/3/2 116/3/2
f 114/4/2 115/4/2 119/4/2
f 119/4/2 115/4/2 120/4/2
f 117/3/2 118/3/2 122/3/2
f 122/3/2 118/3/2 123/3/2
f 120/3/2 121/3/2 124/3/2
f 124/3/2 121/3/2 125/3/2
f 126/3/2 127/3/2 128/3/2
f 128/3/2 127/3/2 129/3/2
f 130/3/2 131/3/2 132/3/2
f 132/3/2 131/3/2 133/3/2
f 134/3/2 135/3/2 136/3/2
f 136/3/2 135/3/2 137/3/2
f 138/3/2 139/3/2 141/3/2
f 141/3/2 139/3/2 142/3/2
f 140/4/2 141/4/2 143/4/2
f 143/4/2 141/4/2 144/4/2
f 144/3/2 145/3/2 148/3/2
f 148/3/2 145/3/2 149/3/2
f 146/3/2 147/3/2 150/3/2
f 150/3/2 147/3/2 151/3/2
f 152/3/2 153/3/2 154/3/2
f 154/3/2 153/3/2 155/3/2
f 156/3/2 157/3/2 159/3/2
f 159/3/2 157/3/2 160/3/2
f 158/3/2 159/3/2 161/3/2
f 161/3/2 159/3/2 162/3/2
f 163/3/2 164/3/2 165/3/2
f 165/3/2 164/3/2 166/3/2
f 166/5/2 167/5/2 168/5/2
f 168/5/2 167/5/2 169/5/2
f 169/5/2 167/5/2 170/5/2
f 169/3/2 170/3/2 171/3/2
f 171/3/2 170/3/2 172/3/2
f 173/3/2 174/3/2 176/3/2
f 176/3/2 174/3/2 177/3/2
f 175/3/2 176/3/2 178/3/2
f 178/3/2 176/3/2 179/3/2
f 180/3/2 181/3/2 182/3/2
f 182/3/2 181/3/2 183/3/2
f 184/3/2 185/3/2 189/3/2
f 189/3/2 185/3/2 190/3/2
f 186/4/2 187/4/2 191/4/2
f 191/4/2 187/4/2 192/4/2
f 188/3/2 189/3/2 194/3/2
f 194/3/2 189/3/2 195/3/2
f 192/4/2 193/4/2 196/4/2
f 196/4/2 193/4/2 197/4/2
f 198/3/2 199/3/2 201/3/2
f 201/3/2 199/3/2 202/3/2
f 200/3/2 201/3/2 203/3/2
f 203/3/2 201/3/2 204/3/2
f 205/3/2 206/3/2 207/3/2
f 207/3/2 206/3/2 208/3/2
f 211/4/3 210/4/3 209/4/3
f 212/4/3 210/4/3 211/4/3
f 215/4/3 214/4/3 213/4/3
f 216/4/3 214/4/3 215/4/3
f 220/3/3 218/3/3 217/3/3
f 221/3/3 218/3/3 220/3/3
f 223/3/3 220/3/3 219/3/3
f 224/3/3 220/3/3 223/3/3
f 225/3/3 222/3/3 221/3/3
f 226/3/3 222/3/3 225/3/3
f 227/3/3 225/3/3 224/3/3
f 228/3/3 225/3/3 227/3/3
f 232/3/3 230/3/3 229/3/3
f 233/3/3 230/3/3 232/3/3
f 235/3/3 232/3/3 231/3/3
f 236/3/3 232/3/3 235/3/3
f 237/3/3 234/3/3 233/3/3
f 238/3/3 234/3/3 237/3/3
f 239/3/3 237/3/3 236/3/3
f 240/3/3 237/3/3 239/3/3
f 244/3/3 242/3/3 241/3/3
f 245/3/3 242/3/3 244/3/3
f 246/3/3 244/3/3 243/3/3
f 247/3/3 244/3/3 246/3/3
f 250/3/3 249/3/3 248/3/3
f 251/3/3 249/3/3 250/3/3
f 254/3/3 253/3/3 252/3/3
f 255/3/3 253/3/3 254/3/3
f 257/3/3 256/3/3 255/3/3
f 258/3/3 256/3/3 257/3/3
f 262/3/3 260/3/3 259/3/3
f 263/3/3 260/3/3 262/3/3
f 264/3/3 262/3/3 261/3/3
f 265/3/3 262/3/3 264/3/3
f 268/3/3 267/3/3 266/3/3
f 269/3/3 267/3/3 268/3/3
f 272/3/3 271/3/3 270/3/3
f 273/3/3 271/3/3 272/3/3
f 275/3/3 274/3/3 273/3/3
f 276/3/3 274/3/3 275/3/3
f 280/3/3 278/3/3 277/3/3
f 281/3/3 278/3/3 280/3/3
f 282/3/3 280/3/3 279/3/3
f 283/3/3 280/3/3 282/3/3
f 286/3/3 285/3/3 284/3/3
f 287/3/3 285/3/3 286/3/3
f 289/3/3 288/3/3 287/3/3
f 290/3/3 288/3/3 289/3/3
f 293/3/3 292/3/3 291/3/3
f 294/3/3 292/3/3 293/3/3
f 297/3/3 296/3/3 295/3/3
f 298/3/3 296/3/3 297/3/3
f 301/3/3 300/3/3 299/3/3
f 302/3/3 300/3/3 301/3/3
f 305/3/3 304/3/3 303/3/3
f 306/3/3 304/3/3 305/3/3
f 308/5/3 307/5/3 306/5/3
f 310/5/3 308/5/3 306/5/3
f 310/3/3 309/3/3 308/3/3
f 311/3/3 309/3/3 310/3/3
f 313/5/3 310/5/3 306/5/3
f 314/5/3 310/5/3 313/5/3
f 315/3/3 313/3/3 312/3/3
f 316/3/3 313/3/3 315/3/3
f 319/3/3 318/3/3 317/3/3
f 320/3/3 318/3/3 319/3/3
f 323/3/3 322/3/3 321/3/3
f 324/3/3 322/3/3 323/3/3
f 328/3/3 326/3/3 325/3/3
f 329/3/3 326/3/3 328/3/3
f 330/3/3 328/3/3 327/3/3
f 331/3/3 328/3/3 330/3/3
f 334/3/3 333/3/3 332/3/3
f 335/3/3 333/3/3 334/3/3
f 337/3/3 336/3/3 335/3/3
f 338/3/3 336/3/3 337/3/3
f 341/3/3 340/3/3 339/3/3
f 342/3/3 340/3/3 341/3/3
f 345/3/3 344/3/3 343/3/3
f 346/3/3 344/3/3 345/3/3
f 347/5/4 348/5/4 350/5/4
f 348/3/4 349/3/4 351/3/4
f 350/5/4 348/5/4 351/5/4
f 351/3/4 349/3/4 352/3/4
f 353/3/4 354/3/4 355/3/4
f 355/3/4 354/3/4 356/3/4
f 357/3/4 358/3/4 359/3/4
f 359/3/4 358/3/4 360/3/4
f 361/3/4 362/3/4 363/3/4
f 363/3/4 362/3/4 364/3/4
f 365/3/4 366/3/4 367/3/4
f 367/3/4 366/3/4 368/3/4
f 368/1/4 369/1/4 371/1/4
f 371/1/4 369/1/4 372/1/4
f 370/3/4 371/3/4 373/3/4
f 373/3/4 371/3/4 374/3/4
f 375/3/4 376/3/4 377/3/4
f 377/3/4 376/3/4 378/3/4
f 379/3/4 380/3/4 382/3/4
f 382/3/4 380/3/4 383/3/4
f 381/4/4 382/4/4 384/4/4
f 384/4/4 382/4/4 385/4/4
f 385/3/4 386/3/4 389/3/4
f 386/3/4 387/3/4 389/3/4
f 389/3/4 387/3/4 390/3/4
f 388/3/4 389/3/4 391/3/4
f 391/3/4 389/3/4 392/3/4
f 390/3/4 387/3/4 393/3/4
f 392/3/4 393/3/4 395/3/4
f 393/3/4 387/3/4 396/3/4
f 395/3/4 393/3/4 396/3/4
f 396/3/4 387/3/4 397/3/4
f 394/4/4 395/4/4 398/4/4
f 398/4/4 395/4/4 399/4/4
f 399/3/4 400/3/4 401/3/4
f 401/3/4 400/3/4 402/3/4
f 403/4/4 404/4/4 405/4/4
f 405/4/4 404/4/4 406/4/4
f 407/4/4 408/4/4 409/4/4
f 409/4/4 408/4/4 410/4/4
f 416/3/5 412/3/5 411/3/5
f 417/3/5 414/3/5 413/3/5
f 420/3/5 416/3/5 415/3/5
f 421/3/5 412/3/5 416/3/5
f 421/3/5 416/3/5 420/3/5
f 422/3/5 418/3/5 417/3/5
f 422/3/5 417/3/5 413/3/5
f 423/3/5 418/3/5 422/3/5
f 426/3/5 421/3/5 420/3/5
f 426/3/5 424/3/5 423/3/5
f 426/3/5 423/3/5 422/3/5
f 426/3/5 422/3/5 421/3/5
f 426/3/5 420/3/5 419/3/5
f 427/3/5 424/3/5 426/3/5
f 430/3/5 426/3/5 425/3/5
f 430/3/5 428/3/5 427/3/5
f 430/3/5 427/3/5 426/3/5
f 431/3/5 428/3/5 430/3/5
f 433/3/5 430/3/5 429/3/5
f 433/3/5 432/3/5 431/3/5
f 433/3/5 431/3/5 430/3/5
f 434/3/5 432/3/5 433/3/5
f 435/3/5 432/3/5 434/3/5
f 436/3/5 432/3/5 435/3/5
f 437/3/5 432/3/5 436/3/5
f 438/3/5 432/3/5 437/3/5
f 439/3/5 432/3/5 438/3/5
f 440/3/5 432/3/5 439/3/5
f 441/4/5 435/4/5 434/4/5
f 442/4/5 435/4/5 441/4/5
f 443/3/5 437/3/5 436/3/5
f 444/3/5 437/3/5 443/3/5
f 445/4/5 439/4/5 438/4/5
f 446/4/5 439/4/5 445/4/5
f 452/4/5 448/4/5 447/4/5
f 453/4/5 448/4/5 452/4/5
f 456/4/5 450/4/5 449/4/5
f 457/4/5 450/4/5 456/4/5
f 460/3/5 452/3/5 451/3/5
f 461/3/5 452/3/5 460/3/5
f 462/3/5 454/3/5 453/3/5
f 463/3/5 456/3/5 455/3/5
f 464/3/5 458/3/5 457/3/5
f 465/3/5 458/3/5 464/3/5
f 468/3/5 460/3/5 459/3/5
f 469/3/5 460/3/5 468/3/5
f 470/3/5 462/3/5 453/3/5
f 470/3/5 463/3/5 462/3/5
f 471/3/5 456/3/5 463/3/5
f 471/3/5 463/3/5 470/3/5
f 472/3/5 466/3/5 465/3/5
f 473/3/5 466/3/5 472/3/5
f 476/3/5 468/3/5 467/3/5
f 477/3/5 468/3/5 476/3/5
f 478/3/5 474/3/5 473/3/5
f 479/3/5 474/3/5 478/3/5
f 482/3/5 476/3/5 475/3/5
f 483/3/5 476/3/5 482/3/5
f 484/3/5 480/3/5 479/3/5
f 485/3/5 480/3/5 484/3/5
f 487/3/5 482/3/5 481/3/5
f 494/3/5 486/3/5 485/3/5
f 495/3/5 487/3/5 481/3/5
f 495/3/5 488/3/5 487/3/5
f 496/3/5 488/3/5 495/3/5
f 497/3/5 490/3/5 489/3/5
f 498/3/5 490/3/5 497/3/5
f 499/3/5 492/3/5 491/3/5
f 500/3/5 492/3/5 499/3/5
f 501/3/5 494/3/5 493/3/5
f 502/3/5 486/3/5 494/3/5
f 502/3/5 494/3/5 501/3/5
f 503/4/5 497/4/5 496/4/5
f 504/4/5 497/4/5 503/4/5
f 505/4/5 501/4/5 500/4/5
f 506/4/5 501/4/5 505/4/5
f 509/3/5 508/3/5 507/3/5
f 510/3/5 508/3/5 509/3/5
f 511/3/6 512/3/6 513/3/6
f 513/3/6 512/3/6 514/3/6
f 515/4/6 516/4/6 520/4/6
f 520/4/6 516/4/6 521/4/6
f 517/4/6 518/4/6 524/4/6
f 524/4/6 518/4/6 525/4/6
f 519/3/6 520/3/6 528/3/6
f 521/3/6 522/3/6 529/3/6
f 523/3/6 524/3/6 530/3/6
f 525/3/6 526/3/6 531/3/6
f 527/3/6 528/3/6 534/3/6
f 531/3/6 532/3/6 535/3/6
f 533/3/6 534/3/6 538/3/6
f 535/3/6 536/3/6 539/3/6
f 537/3/6 538/3/6 541/3/6
f 528/3/6 520/3/6 541/3/6
f 534/3/6 528/3/6 541/3/6
f 538/3/6 534/3/6 541/3/6
f 541/3/6 520/3/6 542/3/6
f 521/3/6 529/3/6 543/3/6
f 529/3/6 530/3/6 543/3/6
f 530/3/6 524/3/6 544/3/6
f 543/3/6 530/3/6 544/3/6
f 539/3/6 540/3/6 545/3/6
f 535/3/6 539/3/6 545/3/6
f 531/3/6 535/3/6 545/3/6
f 525/3/6 531/3/6 545/3/6
f 545/3/6 540/3/6 546/3/6
f 537/3/6 541/3/6 547/3/6
f 547/3/6 541/3/6 548/3/6
f 546/3/6 540/3/6 549/3/6
f 549/3/6 540/3/6 550/3/6
f 537/3/6 547/3/6 552/3/6
f 550/3/6 540/3/6 553/3/6
f 551/3/6 552/3/6 555/3/6
f 552/3/6 547/3/6 555/3/6
f 553/3/6 554/3/6 558/3/6
f 550/3/6 553/3/6 558/3/6
f 555/3/6 556/3/6 559/3/6
f 559/3/6 556/3/6 560/3/6
f 557/3/6 558/3/6 561/3/6
f 561/3/6 558/3/6 562/3/6
f 551/3/6 555/3/6 563/3/6
f 555/3/6 559/3/6 563/3/6
f 563/3/6 559/3/6 564/3/6
f 564/3/6 559/3/6 565/3/6
f 562/3/6 558/3/6 566/3/6
f 558/3/6 554/3/6 567/3/6
f 566/3/6 558/3/6 567/3/6
f 567/3/6 554/3/6 568/3/6
f 564/4/6 565/4/6 569/4/6
f 569/4/6 565/4/6 570/4/6
f 566/4/6 567/4/6 571/4/6
f 571/4/6 567/4/6 572/4/6
f 573/3/6 574/3/6 578/3/6
f 578/3/6 574/3/6 579/3/6
f 575/3/6 576/3/6 580/3/6
f 580/3/6 576/3/6 581/3/6
f 578/3/6 579/3/6 584/3/6
f 581/3/6 582/3/6 584/3/6
f 580/3/6 581/3/6 584/3/6
f 579/3/6 580/3/6 584/3/6
f 577/3/6 578/3/6 584/3/6
f 584/3/6 582/3/6 585/3/6
f 583/3/6 584/3/6 587/3/6
f 585/3/6 586/3/6 588/3/6
f 583/3/6 587/3/6 589/3/6
f 587/3/6 588/3/6 589/3/6
f 589/3/6 588/3/6 590/3/6
f 590/3/6 588/3/6 591/3/6
f 588/3/6 586/3/6 592/3/6
f 591/3/6 588/3/6 592/3/6
f 590/3/6 591/3/6 594/3/6
f 594/3/6 591/3/6 595/3/6
f 593/3/6 594/3/6 597/3/6
f 595/3/6 596/3/6 597/3/6
f 594/3/6 595/3/6 597/3/6
f 597/3/6 596/3/6 598/3/6
f 599/5/6 600/5/6 603/5/6
f 603/5/6 600/5/6 604/5/6
f 601/5/6 602/5/6 605/5/6
f 605/5/6 602/5/6 606/5/6
f 607/3/6 608/3/6 610/3/6
f 610/3/6 608/3/6 611/3/6
f 609/3/6 610/3/6 613/3/6
f 611/3/6 612/3/6 613/3/6
f 610/3/6 611/3/6 613/3/6
f 613/3/6 612/3/6 614/3/6
